@startuml
'skinparam monochrome true
skinparam packageStyle rectangle
skinparam shadowing false
skinparam linetype polyline
'skinparam linetype orto

skinparam classAttributeIconSize 0

'left to right direction

class ImportLegacyDataUI

class ImportLegacyDataController

class Repositories {
    - Repositories()
    + getInstance() : Repositories
    + getCSVFileRepository()
    + getOrderRepository()
}

class CSVFileRepository{
    + getCSVFiles()
}

class OrderRepository{

}

class PropertyType{
    - int propertyType
}

class BusinessType{
    - String businessType
}

class Address{
    - String street
    - String cityName
    - String districtName
    - String stateAcronym
    - Integer zipCode
}

class Order{
}

class Commission{
    - boolean typeOfCommission
    - double commissionValue
}

class Property{
    - int area
    - int cityCenter
    - int price
}

class Dwelling{
    - int numBedrooms
    - int numBathrooms
    - int numParkingSpaces
}

class House{
    - boolean basement
    - boolean inhabitableLoft
    - String sunExposure
}

class Equipment{
    - int numEquipments
    - List<String> Equipments
}

ImportLegacyDataUI ..> ImportLegacyDataController

ImportLegacyDataController ..> Repositories
ImportLegacyDataController ..> CSVFileRepository
ImportLegacyDataController ..> OrderRepository

Repositories --> Repositories : instance
Repositories --> "1" CSVFileRepository
Repositories --> "1" OrderRepository

OrderRepository "1" --> "1..*" Order : order

BusinessType "1" --> "1" Property : has a <


Order "1" --> "1" Property : property
Order "1" --> "1" Commission : commission

Property ..> "1" PropertyType : has a
Property ..> "1" Address : located at
Property ..> "1" Dwelling : can be
Property ..> "*" Equipment : can have

Dwelling ..> "1" House : can be

@enduml