@startuml
'skinparam monochrome true
skinparam packageStyle rectangle
skinparam shadowing false
skinparam linetype polyline
'skinparam linetype orto

skinparam classAttributeIconSize 0

'left to right direction

class BookingRequestUI

class BookingRequestController{
    + getBookingRequest()
    + getPropertyLocation()
    + getAgentNameFromSession()
    + getAgentPhoneNumberFromSession()
    + sendEmail()
    + createVisit()
    + deleteBookingRequest()
    - getBookingRequestRepository()
    - getPropertyRepository()
    - getVisitRepository()
    - getCurrentSession()
}

class BookingRequestRepository{
    + deleteBookingRequest()
}

class ApplicationSession{
    + static getInstance()
    + getCurrentSession()
}

class UserSession{
    + getUserEmail()
}

class Repositories {
    - Repositories()
    + getInstance() : Repositories
    + getBookingRequestRepository()
    + getPropertyRepository()
}

class VisitRepository {
    + createVisit(visitDate)
    - addVisit(visit)
    - validateVisit(visit)
}

class Visit{
    - date visitDate
}

BookingRequestUI ..> BookingRequestController

BookingRequestController ..> ApplicationSession
BookingRequestController ..> UserSession
BookingRequestController ..> Repositories : repositories

Repositories --> Repositories : instance
Repositories --> BookingRequestRepository : bookingRequestRepository
Repositories --> VisitRepository : visitRepository

ApplicationSession --> ApplicationSession : instance
ApplicationSession --> "1" UserSession : userSession

VisitRepository --> "*" Visit


@enduml