@startuml
skinparam monochrome true
skinparam packageStyle rectangle
skinparam shadowing false

skinparam classAttributeIconSize 0

hide circle
hide methods

title Domain Model US1


class UnregisteredUser {

}

class Property {

}

class Dwelling{
    numBedrooms
}

class Land

class House

class Apartment

Dwelling <|-- Apartment
Dwelling <|-- House

Property <|-- Dwelling
Property <|-- Land


Property "1..*" -- "1" UnregisteredUser : displays <

@enduml